/* XPM */
static char *a61ca0814a6b4294848fd767236713210JvckroadjiElif8[] = {
/* columns rows colors chars-per-pixel */
"31 31 44 1 ",
"  c #181425",
". c #191526",
"X c #1B1728",
"o c #261F2D",
"O c #27212E",
"+ c #28232E",
"@ c #312B32",
"# c #3F2832",
"$ c #473036",
"% c #743F39",
"& c #7B473E",
"* c #5D4343",
"= c #835347",
"- c #855449",
"; c #87564A",
": c #89574C",
"> c #89594C",
", c #8B5C4E",
"< c #8C5C4C",
"1 c #63C74D",
"2 c #FEAE34",
"3 c #FFAE37",
"4 c #FEB037",
"5 c #F6AE43",
"6 c #F9B040",
"7 c #F1D76D",
"8 c #F6DE69",
"9 c #E2C776",
"0 c #E6CA75",
"q c #E7CC74",
"w c #EACF72",
"e c #E0C578",
"r c #FEE761",
"t c #FBE365",
"y c #FBE466",
"u c #FCE465",
"i c #124E89",
"p c #2CE8F5",
"a c #8B9BB4",
"s c #CCAC86",
"d c #D0B283",
"f c #D0B390",
"g c #C0CBDC",
"h c white",
/* pixels */
"sssssssssssssssssssssssssssssss",
"sssssssssssssssssssssssssssssss",
"sssssssssssssssO@ssssssssssssss",
"ssssssssssssssoga sssssssssssss",
"sssssssss0s8rrrrrrrrrfsssssssss",
"sssssss4%%%%%%%%%%%%%%%%5ssssss",
"sssssss2################2ssssss",
"sssssss2################2ssssss",
"sssssss2################2ssssss",
"sssssss2%%############%%2ssssss",
"sssssss2%%%%%%%%%%%%%%%%2ssssss",
"sssssss222222222222222223ssssss",
"sssssss2%%%%%%%%%%%%%%%%2ssssss",
"ssssssst%%####hr1hr###%%yssssss",
"sssssssq###hhprrrrth2#$#7ssssss",
"ssssssss+2i222h2222221..sssssss",
"sssssssssrhrrrrrrrrrrs9ssssssss",
"ssssssss*##############$sssssss",
"ssssssse#%%%%%%%%%%%%%%#wssssss",
"sssssssu#%%%%%%%%%%%%%%#rssssss",
"sssssss8$%%%%%%%%%%%%%%#rssssss",
"sssssss.r%%,<<>>:;-=%&%r ssssss",
"sssssss6Xyssssssssssssd.5ssssss",
"sssssssssssssssssssssssssssssss",
"sssssssssssssssssssssssssssssss",
"sssssssssssssssssssssssssssssss",
"sssssssssssssssssssssssssssssss",
"sssssssssssssssssssssssssssssss",
"sssssssssssssssssssssssssssssss",
"sssssssssssssssssssssssssssssss",
"sssssssssssssssssssssssssssssss"
};
