/* XPM */
static char *_dfb075f81c442ffcac331ee4a195683uGyAm4mt1GWcrWFy[] = {
/* columns rows colors chars-per-pixel */
"31 31 38 1 ",
"  c #743F39",
". c #77443D",
"X c #78423B",
"o c #7B4940",
"O c #7E4B40",
"+ c #855347",
"@ c #89584B",
"# c #B86F50",
"$ c #B97152",
"% c #BA7153",
"& c #B97252",
"* c #BA7757",
"= c #BC7555",
"- c #BB7658",
"; c #BB7858",
": c #BC7959",
"> c #BE7B5A",
", c #BC7D5C",
"< c #BE8060",
"1 c #BF8564",
"2 c #BF8764",
"3 c #C08363",
"4 c #C08563",
"5 c #C28666",
"6 c #C08866",
"7 c #C28569",
"8 c #C3896C",
"9 c #C4886C",
"0 c #C48C6F",
"q c #C4936E",
"w c #C58F71",
"e c #C69072",
"r c #C59472",
"t c #C79777",
"y c #C89B79",
"u c #CA9E7B",
"i c #124E89",
"p c #CCAC86",
/* pixels */
"ppppppppppppppppppppppppppppppp",
"ppppppppppppppp+ppppppppppppppp",
"ppppppppppppppwoppppppppppppppp",
"pppppppppppppp8oppppppppppppppp",
"ppppppppppppppywppppppppppppppp",
"ppppppppppppppp@ppppppppppppppp",
"ppppppppppppppppppppppppppppppp",
"ppppppppppppppppppppppppppppppp",
"pprq:44-44ppppppppppppppppppppp",
"p;pp6pp3pp<pppppppppppppppppppp",
"p%:%X-- := ,ppp@ppppppppppppppp",
"p#        7*pppOppppppppppppppp",
"p#5777777777*=# -$$,#;1#-pppppp",
"p#7777777779pp%Xp-pp2pp1#50-;1p",
"p##########7 9  7 11Xw8X%ppqpp*",
"p#77 77 777#7     o     Xtu.8w#",
"p######## 57###################",
"p##       ###7#77#77#77##77#77#",
"p##         #################%p",
"p##X                        #pp",
"p##                         #pp",
"pp#                       ##ppp",
"ppp                       ipppp",
"pppi                     ippppp",
"ppppi                  iiippppp",
"pppppiiiiiiiiiiiiiiiiiiiipppppp",
"pppppppppppiiiiiiiipppppppppppp",
"ppppppiiippppppppppppiiiipppppp",
"ppppppppppppppppppppppppppppppp",
"ppppppppppppppppppppppppppppppp",
"ppppppppppppppppppppppppppppppp"
};
