/* XPM */
static char *_44ac27f58324aeee69aa47d9948790bqF6HA3dkeApKuqOn[] = {
/* columns rows colors chars-per-pixel */
"31 31 14 1 ",
"  c #181425",
". c #211C29",
"X c #E4A672",
"o c #5A6988",
"O c #8B9BB4",
"+ c #CCAC86",
"@ c #D1B593",
"# c #D4BA9A",
"$ c #D7BFA1",
"% c #EAD4AA",
"& c #E2D1BB",
"* c #F5EFE8",
"= c #F8F4EE",
"- c #FFFFFE",
/* pixels */
"+++++++++++++++++++++++++++++++",
"+++++++++++++++++++++++++++++++",
"+++++++++++++++++++++++++++++++",
"+++++++++++++++++++++++++++++++",
"+++++++++++++++++++++++++++++++",
"+++++++++++++++++++++++++++++++",
"+++++++++++++++++++++++++++++++",
"+++++++++++++++++++++++++++++++",
"+++++++++++++++++++++++++++++++",
"+++++++++++++++++++++++++++++++",
"+++++++++++++++++++++++++++++++",
"+++++++++++++    +  +++++++++++",
"++++++++++++         ++++++++++",
"+++++++++++     &$@   +++++++++",
"++++++++++     -*=#-   ++++++++",
"++++++++       - - -    +++++++",
"++++++++        ---     +++++++",
"++++++++        - -     +++++++",
"++++++++.               +++++++",
"+++++++++++ X%%%%%%% ++++++++++",
"+++++++++++ X%  %%%  ++++++++++",
"+++++++++++ X%  %%%  ++++++++++",
"+++++++++++ X%%%%%%% ++++++++++",
"+++++++++++ X%%%%%%% ++++++++++",
"+++++++++++ X%%%%%%% ++++++++++",
"+++++++++++ OOOOOOOO ++++++++++",
"+++++++++++ oooooooo ++++++++++",
"+++++++++++ oooooooo ++++++++++",
"++++++++++ OO     OO ++++++++++",
"++++++++++ O ++++   +++++++++++",
"++++++++++  +++++++++++++++++++"
};
