/* XPM */
static char *_a5f4154386345f6f44d4fc3065302c1As8gHGdWfkzu8Ha1[] = {
/* columns rows colors chars-per-pixel */
"31 31 32 1 ",
"  c #93C9DB",
". c #94CADC",
"X c #95CBDD",
"o c #96CCDE",
"O c #97CDDF",
"+ c #97CEE0",
"@ c #98CEE0",
"# c #9AD1E3",
"$ c #9ED6E8",
"% c #A0D7E8",
"& c #A1D8EA",
"* c #A3DAED",
"= c #A3DBED",
"- c #A5DEEF",
"; c #A7DFF1",
": c #A8E0F2",
"> c #A9E1F3",
", c #AAE2F4",
"< c #ABE2F4",
"1 c #AAE3F4",
"2 c #ABE3F5",
"3 c #ABE3F6",
"4 c #ACE5F7",
"5 c #ADE6F9",
"6 c #AEE7FA",
"7 c #AFE8FB",
"8 c #AFE9FB",
"9 c #AFE8FC",
"0 c #AFE9FC",
"q c #B0E8FB",
"w c #B0E8FC",
"e c #B0E9FC",
/* pixels */
"222477777ee6e777e6w6e6e6ee6e07e",
"222677777e6q6e776q6e6e6q0660eqe",
"22667777eeqeqqqqqqqeeqeeeeee777",
"22667777e7e6qqqqqqe6eqqqee6e777",
"2677777ee7777770e6eeeeeeq0e6e6q",
"2677777eee77q777eeeee6eee6e66e6",
"677777ee77077eeee66e6ee66e6ee6q",
"667777e7077eee77e6e6e66qe6e6664",
"77777ee77eee777760606e66e662222",
"7777eeqeee7777779606w6662222222",
"7777eeqe77777777696662222;X.$22",
"777eeeq777777777662222222;XX%22",
"77eeq77777777774222222222;+#=2;",
"7eee7777777q74412222222222224<2",
"eee7777777742612222222222>222>2",
"ee777777664>>21122222;>2>222>22",
"e7777777<<4<<4<<4>222;22>2222>4",
"777777744>>44>4>>>><22>2222;<<<",
"77776642<44<<>4444-<>22>222X@;2",
"7777414><4>4<4<<<<<42>2222$XOX$",
"q7q442224<<>44&$=2>2>>224;XXOXX",
"=--<2222>4>2<>XXO22>22222#XXXXX",
"  #<>222>2>2<4 X#2>2>2>22+XXXX#",
" X#4>24>2>2<>>-;;22>222222=+X+;",
"%&=2>22222>2222<22222>22>222%=2",
"22222>>2222>>2><2222>2>22222222",
">22222<>22222>>2+$;22222222222<",
"22>2<<4222>22<4=O.O=22222222267",
">22>222>>2>2>22O.XO.O:222226666",
"22>222>2222>22=XOO..#2222266w6e",
">2>2222>2222>2#X..O ;22626996e6"
};
