/* XPM */
static char *_6c785e8078a416cba2718b0e3e272b38Yk3wSXgODw9uKqR[] = {
/* columns rows colors chars-per-pixel */
"31 31 13 1 ",
"  c #ABE3F5",
". c #ABE4F6",
"X c #ACE4F6",
"o c #ACE4F7",
"O c #ACE5F7",
"+ c #ADE5F8",
"@ c #ADE6F8",
"# c #AEE6F9",
"$ c #AEE7F9",
"% c #AEE7FA",
"& c #AFE7FA",
"* c #AFE8FB",
"= c #B0E9FC",
/* pixels */
"===============================",
"===============================",
"===============================",
"===============================",
"===============================",
"===============================",
"===============================",
"===============================",
"===============================",
"===============================",
"*==============================",
"  @============================",
"    @*=========================",
"       @=======================",
"        X@@====================",
"           .@*=================",
"               @*=*============",
"                  +@*==========",
"                     +@***=====",
"                        +&**===",
"                           @*=*",
"                              &",
"                               ",
"                               ",
"                               ",
"                               ",
"                               ",
"                               ",
"                               ",
"                               ",
"                               "
};
