/* XPM */
static char *_30d78c80e6a4851990cc2bd0115142dauPGYwhTXMOetBB2[] = {
/* columns rows colors chars-per-pixel */
"31 31 34 1 ",
"  c #3E4B4A",
". c #637D84",
"X c #94C9DB",
"o c #94CADC",
"O c #95CCDE",
"+ c #96CDDF",
"@ c #97CEE0",
"# c #98CEE0",
"$ c #9AD1E3",
"% c #9AD3E3",
"& c #9CD4E5",
"* c #9ED6E8",
"= c #A1D4E5",
"- c #A1D8EA",
"; c #A2DBEC",
": c #A5DEEF",
"> c #A6DEF1",
", c #A7DFF1",
"< c #A8DFF1",
"1 c #A8E0F2",
"2 c #A9E2F4",
"3 c #AAE2F4",
"4 c #ABE2F4",
"5 c #AAE2F5",
"6 c #ABE3F6",
"7 c #ABE4F6",
"8 c #ACE5F7",
"9 c #ADE6F9",
"0 c #AFE8FB",
"q c #AFE8FC",
"w c #B0E8FB",
"e c #B0E9FC",
"r c #B1EBFE",
"t c #B5F0FF",
/* pixels */
"444442426,4264744800000e0eet=. ",
"44444444462447477000000ee00eet4",
"4444646464467476900000eeee000ee",
"7444262644644677000000e0qqeew0e",
"44,646424474777q00000eeeeeee000",
"446464427747477q0000eeeeee00000",
"64664246477479qq0000eeee0000000",
"46,6446474777qqq000eeee000e0000",
"444474744788w00000eee000000q9ww",
"44474747478000000eee00000000e66",
"4774747479000000eew0000000w7666",
"744747489000000wee00000009644%X",
"47477789000000eew00000e997478%X",
"747478w000000wee00000e9747446&%",
"774700000000eee0000009777474443",
"777q0000000eee00000w88474747334",
"9q00000000eee000000977473643333",
"00000000eeee0000009774748333373",
"00000000eeee00e0007474473337333",
"00000ee00ee0000004474744333338%",
"000q00000e0000003377774437347;X",
"0eqqeeee0e0000093;;*144443333%+",
"e0q4;;90q00000044%OO;7244344,X+",
"000;oo4e000000778%XX14423846;+X",
"e0e;oX4eq00008744<,:3333346433%",
"ee07;;7qq0000747484384333338846",
":e0eeeee00009474644664443333434",
"o+7e000000004747444;+,433433333",
"+o1qqe0000077474831+oo;37333333",
"o%ee00000004474746;X@ooo3433438",
"o7e0e0000077747483XXo#o@,733373"
};
