/* XPM */
static char *_2ebe29a4eeb49b88c9080ff4b853dda3kWbt3lt514JbH00[] = {
/* columns rows colors chars-per-pixel */
"31 31 15 1 ",
"  c #AAE2F4",
". c #ABE2F4",
"X c #ABE3F4",
"o c #AAE2F5",
"O c #AAE3F5",
"+ c #ABE3F6",
"@ c #ACE5F7",
"# c #ADE5F8",
"$ c #ADE6F9",
"% c #AFE8FB",
"& c #AFE9FB",
"* c #AFE8FC",
"= c #AFE9FC",
"- c #B0E9FB",
"; c #B0E9FC",
/* pixels */
"XXXXOoo....X;#;;%;%&&&&&&&&&&&&",
"XXXXooo...##****%;**===========",
"OXXXOo#O+XX#%%%%;;**=&&=======%",
"OXXXXXOO#+X-%%%%;%*************",
"oooXoXOOXX#%%%%%;%---%%%%%%%%%%",
"oooooXOOXX%%%%%;;------;;;;;---",
"XXXoXXoXX#%%%%%;%===*====;=====",
"XXXXXXooX*%%%%%;%%%*%&=*=====*=",
"oXXXXXXX#*%%%%*;*%%%%%%%**;#***",
"XXXX%XXX*#%%%%;%*%%%%%%%**;**;;",
"ooo$XXXX***%%;;**%%*****%*;;;;*",
"oXoXXXX%#***%;;*%%*%%%;;;;;;#*#",
"Xooo@X%%%%%%;;%%;*;;;;-%%%%%***",
"Xooo@X%%%%%%;%*%%;;;%%%%%%%%***",
"XX$X@%%%%%%;;%%;;;%%%%%%%%%%***",
"oX$o%%%%%%;;-;;;%%%%%%%%%%%%###",
"o$$#*%%%%%;;;;%%%%%%%%%%*##XX#o",
"  X**%%%%;;;;%%%%%%%%%*XOOO#XXX",
"X$**%%%%;;*%%%%%%%%;+@+%ooXXX#X",
"$#**%%%%;;%%%%%%%%%+XOOOoXXXooX",
"%%%%%%*;*%%%*****OXXXX+X  .X oX",
"%%%%%*;;%%%%%**$X$XXXXO%  XXX.o",
"%%%%;;;%%%%*%$XXXX#X  XXo.X Xo ",
"%%%;;;%%%%%%% $oOXXX XXXoXXoXo.",
"%%;;%%%%%%%X$XXo*XXoo..Xo.Xo.  ",
"%-;;%%%%%%%XoXXoXXXXX o.oo.... ",
";;;%%%%%*$+%XXooXoXooo.........",
";;%%%%%%XXXX$oooooXX...........",
";;%%%%*%X$XXXXXXoo.oo.....Xoo..",
";%%%%%*X$XXXXXXooXoo......X X .",
"%%%%%%XXO XXXXXooooo.o..... o.."
};
