/* XPM */
static char *e0292f3d18214af49d68fb5d41e0f31a5tmul5NUAKL3Mgx8[] = {
/* columns rows colors chars-per-pixel */
"31 31 51 1 ",
"  c #93C8DA",
". c #93CADC",
"X c #94CADC",
"o c #96CCDE",
"O c #97CEE0",
"+ c #9BD2E3",
"@ c #9AD3E3",
"# c #9CD2E3",
"$ c #9CD2E4",
"% c #9ED6E8",
"& c #A0D7EA",
"* c #A5D9EA",
"= c #A3DBEE",
"- c #A6DBEC",
"; c #A6DCEC",
": c #A9DEEF",
"> c #A5DDF0",
", c #AADEF0",
"< c #ACE0F0",
"1 c #ADE1F3",
"2 c #A9E2F4",
"3 c #ABE4F6",
"4 c #AFE4F4",
"5 c #AFE7FA",
"6 c #AFE8FB",
"7 c #AFE8FC",
"8 c #AFE9FC",
"9 c #B0E5F4",
"0 c #B2E4F4",
"q c #B3E5F6",
"w c #B3E6F6",
"e c #B4E5F5",
"r c #B4E5F6",
"t c #B4E7F7",
"y c #B3E7F8",
"u c #B4E7F8",
"i c #B0E9FB",
"p c #B2EAFB",
"a c #B6E9FB",
"s c #B7E9FB",
"d c #B6EBFB",
"f c #B0E9FC",
"g c #B0E9FD",
"h c #B7EBFC",
"j c #B8EBFB",
"k c #B8EAFC",
"l c #B8EDFD",
"z c #BEECFC",
"x c #C3EEFC",
"c c #C6EFFC",
"v c #C9EFFC",
/* pixels */
"8888887778887877887785585858585",
"ff7777575758755758f75785ffffff8",
"58587ff8ff85858585ff8588f7$5ff8",
"f585fff8755858585858ff5ff=. &8f",
"857758y8585ffffff585855f5ooXoo=",
"ff888578858f2 X=f85858f8=XXoo %",
"X@fy6if888ff2.X=f58885f5XoXooo8",
"X@ff8fffiiff2$@>8788yfff2OXo >f",
"@&fiiiffiiiffffff855858fff> +8i",
"fffiiiffiiiiiifffffiifiifff668y",
"jjaiaifiifiif8f>8888iiffff56552",
"jajahaaaaiiii55X.>86ffffff65552",
"jhaakkkajaaakl+X o@wfiiii66i614",
"jdahuhakaajhk:XXoo @ljaaajajwwi",
"hhalhhkajhjhaXXooo wjjajajaawww",
"jjjjkhhhhhahk1OXo %llajajaaewww",
"hhjhkkkkjjjjkkl-XXukkaklllteeew",
"hhalakkkjjjjlalkk,kjkjle**1etee",
"hakakahhjajjjjakkkkjjak4  *eeew",
"hhakkhhhakklkljjklljajl1o *ettw",
"kkujajakak,#+wjaajajjjaw:<<a0wq",
"akkalahkjl;X wjjjajaaaewaeee0qq",
"khalhkakhd;. 4jajajjaaeeeewwe0q",
"jakakkdkkkkddjjjjljaweee0qqeeee",
"kkkkkkkkkajajajak1  *eeetettwwq",
"hkhhahkhajajajaja1o &eeteeeewwq",
"kkkkjjkkjajajaaaw<++:ewwwewweww",
"lkkjjjjuajajaawtteewee4wwtewwww",
"jkjjjjjjjahaweeeeteewweewwwweet",
"lkjajjjjjawaeeewteeteeeeeeeeeee",
"vccxzjjueeeeeeaweteewweewweeeet"
};
