/* XPM */
static char *_5703d9f51244308c0873a6fb841ad01gvTApWYyLOEXJQBB[] = {
/* columns rows colors chars-per-pixel */
"31 31 6 1 ",
"  c None",
". c #25131A",
"X c #56587B",
"o c #5880CC",
"O c #62ABD4",
"+ c #9BF0FD",
/* pixels */
"...............................",
"+++++O+O+++++++++++++++++++++OO",
"+++++OOO+++++++++++++++++++++++",
"++++++++++++++++++++O++++++++++",
"+++++++++++++++++++++++OO++++++",
"++OOOOOOOOOOOOOOOOOOOO+OO+OO+++",
"OOOOOOOOOOOOOOOOO++OOO++++OOOOO",
"OOOOOOOO++OOOOOOO++OOOOOOOOOOOO",
"OOOOOOOO++OOOOOOOOOOOOOOOOOOOOO",
"OOOOOOOOOOOOOOOOOOOOOOOOOOOOOOO",
"OOOOOOOOOOOOOOOOOOOOOOOOOoOOOOO",
"OOOoooOOOOOOOooOOOoooOOOOOOOOOO",
"OOOooooOOOOOOooOOOooooOOOOoooOO",
"ooOoooooOOOOOOOOOOoooooOOOooooO",
"ooOOoooooOOOooOOOOOoooooOOooooo",
"OOOOooooooOOoooOOOOOoooooOOoooo",
"oOOOooooooooooooOOOOOoooooOoooo",
"ooooooooooOOoooooOOOOoooooooooo",
"oooOOoooooOOOoooooOOOoooooOOooo",
"oooOOooooooOOoooooooooooooOOOoo",
"ooooooooooooooooooooOOoooooOOoo",
"XoooooooooooooooooooOOooooooooo",
"XoooooooooooooooooooooooooXXXoo",
"oooooooooXXooooooXXXooooooXXXXo",
"ooooXXXooXXooooooXoXooooooXXXXX",
"ooooXXXXooooXXXooXXXoXXXoooXXXX",
"XoooXXXXXoooXXXXoooooXXXXoooXXX",
"XXoooXXXXXooXXXXXooooXXXXXooXXX",
"XXXooXXXXXXooXXXXXooooXXXXXXXXX",
"XXXXXXXXXXXXooXXXXXXXXXXXXXXXXX",
"                               "
};
