/* XPM */
static char *d2c627facb1241e4f90de8821e4fb5d2IvNincp6rBNNe0dO[] = {
/* columns rows colors chars-per-pixel */
"31 31 3 1 ",
"  c #0069B7",
". c #1186DD",
"X c #6F9FC9",
/* pixels */
"     ...        ..XX.     ..   ",
"      ..       .....X       ...",
"..     .      .    ..    XX.. .",
"....   .... .. ..   .   .      ",
" ........  ..X...      ..      ",
".XX.        .XXXX    ........  ",
"XX...      .....XX...       ...",
"..  ...XX....... .X        . ..",
"..   .   XX. .            .    ",
"  .   ..      X.        ..     ",
" .     ..      XX    ...       ",
".       .       ...    ..     .",
"XX    ....      .. ..    ..  . ",
"  XXX.    ......           . . ",
"   .            .           .  ",
"   ..         ..XX   ...   .XX ",
"    .   XXX  ..  XXX   ...XX   ",
"     ...    ..   ....       .. ",
"      ..   .         .        .",
"       .   .          .        ",
"   ... ..................   ...",
"   ...XX     ..      .  ..  .. ",
"X  ..  XX.  ..       ..   ....X",
".XX.     .. .  .  XX   .     ..",
"   ...    ... ..XXXX  . .......",
"      ....  ..    ..  ..   ..  ",
"    ..       X     .  ..  ..   ",
"   ..       XX. ....X. .... .. ",
".XXXX..     .....  ...   ..... ",
"......   .......    .   .XXX...",
"  .   .. .X    .       .X..    "
};
